# xmcd
#
# Track frame offsets:
#	150
#	17322
#	29757
#	44586
#	60568
#	82018
#	95491
#	108493
#	123809
#	146361
#	160446
#	177079
#	180901
#
# Disc length: 2591 seconds
# Revision: 3
# Processed by: cddbd v1.5.2PL0 Copyright (c) Steve Scherf et al.
# Submitted via: dBpowerAMP V12.0
#
DISCID=a30a1d0d
DTITLE=Randy Rogers Band - Like It Used To Be
DYEAR=2002
DGENRE=Country
TTITLE0=Disappear
TTITLE1=Still Be Losing You
TTITLE2=One Thing I Know
TTITLE3=Lost And Found
TTITLE4=Tommy Jackson
TTITLE5=Friends With Benefits
TTITLE6=Company You Keep
TTITLE7=Like It Used To Be
TTITLE8=Reason To Stay
TTITLE9=Copano Bay
TTITLE10=Memory
TTITLE11=Blow Up Plastic Girl (Take 1)
TTITLE12=Blow Up Plastic Girl
EXTD=
EXTT0=
EXTT1=
EXTT2=
EXTT3=
EXTT4=
EXTT5=
EXTT6=
EXTT7=
EXTT8=
EXTT9=
EXTT10=
EXTT11=
EXTT12=
PLAYORDER=
